<?xml version="1.0" encoding="UTF-8"?>
<svg id="katman_2" data-name="katman 2" xmlns="http://www.w3.org/2000/svg" viewBox="0 0 765.76 770.24">
  <defs>
    <style>
      .cls-1 {
        opacity: .98;
      }

      .cls-2 {
        fill: #ebe8e4;
      }

      .cls-3 {
        fill: #283c54;
      }

      .cls-4 {
        fill: #273d55;
      }
    </style>
  </defs>
  <g id="katman_1" data-name="katman 1">
    <g>
      <rect class="cls-2" width="765.76" height="770.24"/>
      <g>
        <path class="cls-4" d="M532.39,205.79c-1.66,1.66-4.56,2.32-6.84,2.53-22.73,2.13-49.2-2.32-71.87.06-13.51,1.42-18.22,11.71-16.94,24.25.97,9.48,7.75,14.05,16.08,16.89,33.59,11.47,83.35,8.59,86.6,57.26,3.51,52.64-44.1,68.61-88.1,65.63-2.73-.19-7.3-.16-8.25-2.99-.78-2.34-.8-22.68-.37-25.92.32-2.45.89-3.05,3.37-3.37,16.83-2.21,54.61,4.75,58.04-21.38,2.23-16.96-6.95-23.31-21.5-27.82-41.68-12.92-83.63-8.12-79.61-66.55,4.44-64.66,81-47.77,124.8-49.81,3.22.47,6.52,2.21,7.06,5.68.59,3.76.52,16.28-.02,20.12-.23,1.6-1.32,4.31-2.44,5.43Z"/>
        <path class="cls-4" d="M423.99,388.12h14.61c.22,0,3.35,1.85,3.72,2.27,2.63,2.99,2.43,19.83,1.56,24-.49,2.36-2.64,5.95-5.29,5.95h-14.61c-.7,7.94.94,17.37.02,25.12-.34,2.87-1.83,5.24-4.85,5.64s-26.72.23-28.12-.42c-.35-.17-1.51-1.36-1.51-1.49v-28.85h-73.05c-3.49,0-7.13-4.7-7.69-8.05-2.72-16.21,4.22-19.82,12.94-30.16,6.71-7.95,16.25-23.26,27.03-24.67,3.31-.43,16.91-.5,19.49.61,1.81.78,2.6,2.21,2.59,4.2-.03,5.29-13.05,19.8-15.02,25.85h33.72v-80.55c0-.83,3.07-2.41,4.16-2.58,4.42-.7,19.33-.6,23.95-.06,2.91.34,4.76,1.87,6.02,4.47l.34,78.71Z"/>
        <path class="cls-4" d="M317.25,174.55c-25.66-1.73-53.4,1.21-79.27.21-5.01.95-8.82,3.91-9.56,9.17v161.89c.25,6.06,4.11,10.19,10.13,10.84,37.23-3.24,83.7,10.35,113.91-17.22,7.97-7.28,22.72-27.28,28.39-36.79,31.13-52.2-1.19-123.89-63.6-128.1ZM349.69,303.7c-18.72,26.58-59.55,17.56-87.54,19.23v-114.64h58.82c2.2,0,10.69,3.01,13.1,4.13,32.15,14.91,34.08,65.07,15.62,91.27Z"/>
      </g>
      <g>
        <g class="cls-1">
          <path class="cls-3" d="M163.12,499.9c3.07-.5,6.91-.81,10.98-.81,7.07,0,11.89,1.47,15.36,4.35,3.67,2.98,5.91,7.47,5.91,13.87,0,6.75-2.31,11.75-5.87,14.99-3.78,3.39-9.74,5.13-17.07,5.13-4,0-7.04-.21-9.31-.5v-37.04ZM170,531.82c.96.17,2.43.18,3.84.18,8.94.05,14.26-4.91,14.26-14.45.04-8.31-4.75-13.1-13.4-13.1-2.16,0-3.7.19-4.7.4v26.97Z"/>
          <path class="cls-3" d="M212.6,499.39v37.68h-6.89v-37.68h6.89Z"/>
          <path class="cls-3" d="M255.12,535.35c-2.43.87-7.12,2.1-12.13,2.1-6.36,0-11.21-1.6-14.77-5.02-3.36-3.21-5.3-8.16-5.29-13.84.03-11.95,8.53-19.58,21-19.58,4.64,0,8.25.94,10,1.77l-1.53,5.54c-2.05-.91-4.58-1.6-8.57-1.6-8.02,0-13.69,4.76-13.69,13.51s5.28,13.63,13.08,13.63c2.49,0,4.32-.32,5.2-.75v-9.41h-6.64v-5.41h13.32v19.06Z"/>
          <path class="cls-3" d="M273.42,499.39v37.68h-6.89v-37.68h6.89Z"/>
          <path class="cls-3" d="M292.94,505.17h-10.76v-5.78h28.51v5.78h-10.86v31.9h-6.89v-31.9Z"/>
          <path class="cls-3" d="M322.94,526.42l-3.21,10.65h-7.12l12.09-37.68h8.77l12.24,37.68h-7.39l-3.41-10.65h-11.97ZM333.78,521.21l-2.97-9.28c-.72-2.33-1.35-4.9-1.92-7.08h-.12c-.55,2.21-1.12,4.82-1.79,7.06l-2.91,9.31h9.71Z"/>
          <path class="cls-3" d="M355.36,499.39h6.89v31.91h15.5v5.78h-22.38v-37.68Z"/>
          <path class="cls-3" d="M394.22,499.39v37.68h-6.89v-37.68h6.89Z"/>
          <path class="cls-3" d="M404.03,533.26l19.28-27.97v-.19h-17.58v-5.71h26.49v4.05l-19.01,27.73v.19h19.29v5.71h-28.47v-3.81Z"/>
          <path class="cls-3" d="M450.39,526.42l-3.21,10.65h-7.12l12.09-37.68h8.77l12.24,37.68h-7.39l-3.41-10.65h-11.97ZM461.23,521.21l-2.97-9.28c-.72-2.33-1.35-4.9-1.92-7.08h-.12c-.55,2.21-1.12,4.82-1.79,7.06l-2.91,9.31h9.71Z"/>
          <path class="cls-3" d="M485.52,505.17h-10.76v-5.78h28.51v5.78h-10.86v31.9h-6.89v-31.9Z"/>
          <path class="cls-3" d="M518.93,499.39v37.68h-6.89v-37.68h6.89Z"/>
          <path class="cls-3" d="M564.67,517.85c0,12.62-7.65,19.83-18.03,19.83s-17.38-8.13-17.38-19.17,7.31-19.75,17.94-19.75,17.47,8.31,17.47,19.08ZM536.53,518.38c0,7.69,3.88,13.8,10.46,13.8s10.41-6.19,10.41-14.07c0-7.11-3.53-13.83-10.4-13.83s-10.48,6.36-10.48,14.1Z"/>
          <path class="cls-3" d="M574.99,537.07v-37.68h7.87l9.73,16.17c2.48,4.16,4.68,8.54,6.41,12.63l.14-.04c-.49-5-.62-9.86-.62-15.62v-13.15h6.36v37.68h-7.13l-9.83-16.58c-2.4-4.14-4.9-8.73-6.75-13l-.18.04c.28,4.89.37,9.87.37,16.06v13.48h-6.36Z"/>
        </g>
        <g class="cls-1">
          <path class="cls-3" d="M144.44,550.71h17.52v3.34h-13.3v10.33h12.29v3.32h-12.29v14.04h-4.22v-31.02Z"/>
          <path class="cls-3" d="M199.59,565.9c0,10.64-6.8,16.33-15.09,16.33s-14.62-6.37-14.62-15.74,6.38-16.29,15.06-16.29,14.65,6.49,14.65,15.71ZM174.31,566.39c0,6.64,3.78,12.58,10.41,12.58s10.42-5.84,10.42-12.89c0-6.17-3.38-12.62-10.37-12.62s-10.46,6.15-10.46,12.94Z"/>
          <path class="cls-3" d="M208.84,551.13c2.13-.41,5.19-.67,8.08-.67,4.46,0,7.4.81,9.43,2.55,1.61,1.36,2.55,3.47,2.55,5.9,0,4.08-2.73,6.78-6.13,7.9v.11c2.48.83,3.98,3.07,4.77,6.28,1.07,4.33,1.84,7.3,2.5,8.51h-4.36c-.51-.9-1.25-3.54-2.14-7.43-.97-4.25-2.72-5.9-6.53-6.02h-3.98v13.44h-4.2v-30.59ZM213.03,565.25h4.29c4.5,0,7.34-2.33,7.34-5.89,0-4.03-3.05-5.78-7.48-5.79-2.04,0-3.45.18-4.16.35v11.32Z"/>
          <path class="cls-3" d="M252.12,576.84c1.88,1.12,4.62,2.01,7.51,2.01,4.3,0,6.82-2.14,6.82-5.28,0-2.88-1.76-4.57-6.15-6.14-5.31-1.8-8.6-4.46-8.6-8.8,0-4.83,4.21-8.41,10.55-8.41,3.3,0,5.76.73,7.18,1.5l-1.17,3.28c-1.04-.59-3.21-1.47-6.14-1.47-4.47,0-6.16,2.52-6.16,4.64,0,2.88,1.98,4.3,6.47,5.95,5.52,2.06,8.3,4.59,8.3,9.14s-3.68,8.94-11.38,8.94c-3.15,0-6.58-.91-8.31-2.02l1.1-3.34Z"/>
          <path class="cls-3" d="M284.48,550.71v18.38c0,6.92,3.22,9.85,7.61,9.85,4.79,0,7.91-3.04,7.91-9.85v-18.38h4.22v18.1c0,9.54-5.26,13.43-12.31,13.43-6.64,0-11.65-3.61-11.65-13.25v-18.27h4.22Z"/>
          <path class="cls-3" d="M314.77,576.84c1.88,1.12,4.62,2.01,7.51,2.01,4.3,0,6.82-2.14,6.82-5.28,0-2.88-1.76-4.57-6.15-6.14-5.31-1.8-8.6-4.46-8.6-8.8,0-4.83,4.21-8.41,10.55-8.41,3.3,0,5.76.73,7.18,1.5l-1.17,3.28c-1.04-.59-3.21-1.47-6.14-1.47-4.47,0-6.16,2.52-6.16,4.64,0,2.88,1.98,4.3,6.47,5.95,5.52,2.06,8.3,4.59,8.3,9.14s-3.68,8.94-11.38,8.94c-3.15,0-6.58-.91-8.31-2.02l1.11-3.34Z"/>
          <path class="cls-3" d="M349.14,554.09h-9.91v-3.38h24.09v3.38h-9.96v27.63h-4.22v-27.63Z"/>
          <path class="cls-3" d="M372.39,571.97l-3.36,9.75h-4.36l11.06-31.02h5.05l11.11,31.02h-4.49l-3.48-9.75h-11.53ZM383.07,568.84l-3.22-8.93c-.71-2.03-1.19-3.88-1.68-5.66h-.11c-.47,1.81-.97,3.71-1.61,5.6l-3.21,8.98h9.83Z"/>
          <path class="cls-3" d="M404.69,550.71v31.02h-4.22v-31.02h4.22Z"/>
          <path class="cls-3" d="M415.81,581.72v-31.02h4.62l10.42,15.68c2.38,3.64,4.27,6.9,5.81,10.1l.11-.05c-.38-4.14-.46-7.92-.46-12.73v-13h3.96v31.02h-4.27l-10.34-15.72c-2.24-3.48-4.43-7.01-6.05-10.38l-.14.05c.25,3.93.31,7.67.31,12.8v13.26h-3.96Z"/>
          <path class="cls-3" d="M456.67,571.97l-3.36,9.75h-4.36l11.06-31.02h5.05l11.11,31.02h-4.49l-3.48-9.75h-11.53ZM467.35,568.84l-3.22-8.93c-.71-2.03-1.19-3.88-1.68-5.66h-.11c-.47,1.81-.97,3.71-1.61,5.6l-3.2,8.98h9.83Z"/>
          <path class="cls-3" d="M484.74,551.13c1.86-.39,4.76-.67,7.67-.67,4.22,0,6.91.68,8.93,2.25,1.68,1.22,2.72,3.06,2.72,5.49,0,3-2.09,5.64-5.5,6.79v.12c3.1.71,6.72,3.14,6.72,7.78,0,2.65-1.11,4.7-2.78,6.18-2.24,2.01-5.9,2.91-11.23,2.91-2.91,0-5.11-.19-6.53-.34v-30.52ZM488.94,563.84h3.85c4.4,0,7-2.23,7-5.24,0-3.6-2.86-5.05-7.11-5.05-1.95,0-3.06.14-3.74.29v10ZM488.94,578.67c.86.16,2.02.21,3.54.21,4.36,0,8.37-1.52,8.37-6.04,0-4.22-3.83-5.98-8.41-5.99h-3.5v11.82Z"/>
          <path class="cls-3" d="M518.94,550.71v31.02h-4.22v-31.02h4.22Z"/>
          <path class="cls-3" d="M530.07,550.71h4.22v27.64h13.91v3.38h-18.13v-31.02Z"/>
          <path class="cls-3" d="M560.89,550.71v31.02h-4.22v-31.02h4.22Z"/>
          <path class="cls-3" d="M578.22,554.09h-9.91v-3.38h24.09v3.38h-9.96v27.63h-4.22v-27.63Z"/>
          <path class="cls-3" d="M608.45,581.72v-13.15l-10.31-17.87h4.81l4.57,8.57c1.24,2.35,2.23,4.23,3.23,6.4h.1c.9-2.04,2.01-4.07,3.26-6.42l4.69-8.54h4.76l-10.89,17.81v13.21h-4.22Z"/>
        </g>
      </g>
    </g>
  </g>
</svg>