<svg xmlns="http://www.w3.org/2000/svg" xmlns:xlink="http://www.w3.org/1999/xlink" width="766" zoomAndPan="magnify" viewBox="0 0 574.5 577.499966" height="770" preserveAspectRatio="xMidYMid meet" version="1.2"><defs><clipPath id="3db5c306ee"><path d="M 0 0 L 574 0 L 574 577 L 0 577 Z M 0 0 "/></clipPath><filter x="0%" y="0%" width="100%" filterUnits="objectBoundingBox" id="748da502a0" height="100%"><feColorMatrix values="0 0 0 0 1 0 0 0 0 1 0 0 0 0 1 0 0 0 1 0" type="matrix" in="SourceGraphic"/></filter><clipPath id="8145b00c9b"><path d="M 0.0546875 1 L 25 1 L 25 31 L 0.0546875 31 Z M 0.0546875 1 "/></clipPath><clipPath id="883c8a4be4"><path d="M 308 2 L 331.445312 2 L 331.445312 31 L 308 31 Z M 308 2 "/></clipPath><clipPath id="d279937045"><rect x="0" width="332" y="0" height="32"/></clipPath><clipPath id="077c8d366d"><path d="M 20 1 L 43 1 L 43 25.902344 L 20 25.902344 Z M 20 1 "/></clipPath><clipPath id="5b1302eac5"><path d="M 81 1 L 96 1 L 96 25.902344 L 81 25.902344 Z M 81 1 "/></clipPath><clipPath id="a052e5e6a0"><path d="M 103 1 L 121 1 L 121 25.902344 L 103 25.902344 Z M 103 1 "/></clipPath><clipPath id="d5218c4b5f"><path d="M 128 1 L 143 1 L 143 25.902344 L 128 25.902344 Z M 128 1 "/></clipPath><clipPath id="a12f5ef44c"><path d="M 341 1 L 360.832031 1 L 360.832031 25 L 341 25 Z M 341 1 "/></clipPath><clipPath id="7010dc9c02"><rect x="0" width="361" y="0" height="26"/></clipPath></defs><g id="e77208ba08"><g clip-rule="nonzero" clip-path="url(#3db5c306ee)"><path style=" stroke:none;fill-rule:nonzero;fill:#ffffff;fill-opacity:1;" d="M 0 -0.179688 L 573.894531 -0.179688 L 573.894531 577.074219 L 0 577.074219 Z M 0 -0.179688 "/></g><path style=" stroke:none;fill-rule:nonzero;fill:#273d55;fill-opacity:1;" d="M 398.996094 154.050781 C 397.753906 155.292969 395.582031 155.789062 393.871094 155.945312 C 376.835938 157.542969 357 154.207031 340.007812 155.992188 C 329.882812 157.054688 326.355469 164.765625 327.3125 174.164062 C 328.039062 181.269531 333.121094 184.695312 339.363281 186.824219 C 364.539062 195.417969 401.832031 193.261719 404.265625 229.734375 C 406.898438 269.1875 371.214844 281.15625 338.238281 278.921875 C 336.195312 278.78125 332.769531 278.800781 332.058594 276.679688 C 331.472656 274.925781 331.457031 259.683594 331.78125 257.253906 C 332.019531 255.417969 332.445312 254.96875 334.304688 254.730469 C 346.917969 253.074219 375.234375 258.289062 377.804688 238.707031 C 379.472656 225.996094 372.59375 221.238281 361.691406 217.855469 C 330.453125 208.175781 299.015625 211.773438 302.027344 167.980469 C 305.355469 119.523438 362.730469 132.179688 395.558594 130.652344 C 397.972656 131.003906 400.445312 132.308594 400.847656 134.910156 C 401.289062 137.726562 401.238281 147.109375 400.832031 149.988281 C 400.660156 151.1875 399.84375 153.21875 399.003906 154.058594 Z M 398.996094 154.050781 "/><path style=" stroke:none;fill-rule:nonzero;fill:#273d55;fill-opacity:1;" d="M 317.757812 290.695312 L 328.707031 290.695312 C 328.871094 290.695312 331.21875 292.082031 331.496094 292.398438 C 333.464844 294.636719 333.316406 307.257812 332.664062 310.382812 C 332.296875 312.152344 330.683594 314.84375 328.699219 314.84375 L 317.75 314.84375 C 317.226562 320.792969 318.453125 327.859375 317.765625 333.667969 C 317.511719 335.820312 316.394531 337.597656 314.128906 337.894531 C 311.867188 338.195312 294.105469 338.066406 293.054688 337.582031 C 292.792969 337.453125 291.925781 336.5625 291.925781 336.464844 L 291.925781 314.84375 L 237.175781 314.84375 C 234.5625 314.84375 231.832031 311.320312 231.414062 308.808594 C 229.375 296.660156 234.578125 293.957031 241.113281 286.207031 C 246.140625 280.25 253.289062 268.773438 261.371094 267.71875 C 263.851562 267.394531 274.042969 267.34375 275.976562 268.175781 C 277.332031 268.757812 277.925781 269.832031 277.917969 271.324219 C 277.894531 275.285156 268.136719 286.160156 266.660156 290.695312 L 291.933594 290.695312 L 291.933594 230.328125 C 291.933594 229.707031 294.234375 228.523438 295.050781 228.394531 C 298.363281 227.871094 309.535156 227.945312 313 228.347656 C 315.179688 228.605469 316.566406 229.75 317.511719 231.699219 L 317.765625 290.6875 Z M 317.757812 290.695312 "/><path style=" stroke:none;fill-rule:nonzero;fill:#273d55;fill-opacity:1;" d="M 237.761719 130.636719 C 218.53125 129.339844 197.742188 131.542969 178.351562 130.792969 C 174.597656 131.507812 171.742188 133.722656 171.1875 137.667969 L 171.1875 258.996094 C 171.375 263.535156 174.269531 266.632812 178.78125 267.117188 C 206.683594 264.691406 241.507812 274.875 264.148438 254.210938 C 270.121094 248.757812 281.175781 233.769531 285.425781 226.640625 C 308.757812 187.519531 284.535156 133.792969 237.761719 130.636719 Z M 262.074219 227.425781 C 248.042969 247.347656 217.445312 240.585938 196.46875 241.839844 L 196.46875 155.921875 L 240.550781 155.921875 C 242.199219 155.921875 248.5625 158.179688 250.367188 159.019531 C 274.460938 170.191406 275.910156 207.785156 262.074219 227.421875 Z M 262.074219 227.425781 "/><g mask="url(#2e4fa79ad3)" transform="matrix(1,0,0,1,122,372)"><g clip-path="url(#d279937045)"><g clip-rule="nonzero" clip-path="url(#8145b00c9b)"><path style=" stroke:none;fill-rule:nonzero;fill:#283c54;fill-opacity:1;" d="M 0.25 2.46875 C 2.550781 2.09375 5.429688 1.863281 8.480469 1.863281 C 13.777344 1.863281 17.390625 2.964844 19.988281 5.121094 C 22.742188 7.355469 24.417969 10.71875 24.417969 15.515625 C 24.417969 20.574219 22.6875 24.324219 20.019531 26.75 C 17.1875 29.292969 12.71875 30.59375 7.226562 30.59375 C 4.230469 30.59375 1.949219 30.4375 0.25 30.222656 L 0.25 2.460938 Z M 5.40625 26.390625 C 6.125 26.519531 7.226562 26.527344 8.285156 26.527344 C 14.984375 26.5625 18.972656 22.847656 18.972656 15.695312 C 19 9.46875 15.410156 5.878906 8.929688 5.878906 C 7.308594 5.878906 6.15625 6.019531 5.40625 6.179688 Z M 5.40625 26.390625 "/></g><path style=" stroke:none;fill-rule:nonzero;fill:#283c54;fill-opacity:1;" d="M 32.167969 2.085938 L 37.332031 2.085938 L 37.332031 30.324219 L 32.167969 30.324219 Z M 32.167969 2.085938 "/><path style=" stroke:none;fill-rule:nonzero;fill:#283c54;fill-opacity:1;" d="M 69.199219 29.035156 C 67.378906 29.6875 63.863281 30.609375 60.109375 30.609375 C 55.339844 30.609375 51.707031 29.410156 49.039062 26.847656 C 46.519531 24.441406 45.066406 20.734375 45.074219 16.476562 C 45.097656 7.519531 51.464844 1.800781 60.8125 1.800781 C 64.289062 1.800781 66.996094 2.507812 68.308594 3.128906 L 67.160156 7.28125 C 65.625 6.597656 63.726562 6.082031 60.738281 6.082031 C 54.726562 6.082031 50.476562 9.648438 50.476562 16.207031 C 50.476562 22.765625 54.433594 26.421875 60.28125 26.421875 C 62.144531 26.421875 63.519531 26.179688 64.175781 25.859375 L 64.175781 18.808594 L 59.199219 18.808594 L 59.199219 14.753906 L 69.183594 14.753906 L 69.183594 29.035156 Z M 69.199219 29.035156 "/><path style=" stroke:none;fill-rule:nonzero;fill:#283c54;fill-opacity:1;" d="M 77.75 2.085938 L 82.914062 2.085938 L 82.914062 30.324219 L 77.75 30.324219 Z M 77.75 2.085938 "/><path style=" stroke:none;fill-rule:nonzero;fill:#283c54;fill-opacity:1;" d="M 97.542969 6.417969 L 89.480469 6.417969 L 89.480469 2.085938 L 110.84375 2.085938 L 110.84375 6.417969 L 102.707031 6.417969 L 102.707031 30.324219 L 97.542969 30.324219 Z M 97.542969 6.417969 "/><path style=" stroke:none;fill-rule:nonzero;fill:#283c54;fill-opacity:1;" d="M 120.027344 22.34375 L 117.621094 30.324219 L 112.285156 30.324219 L 121.34375 2.085938 L 127.917969 2.085938 L 137.089844 30.324219 L 131.550781 30.324219 L 128.996094 22.34375 Z M 128.148438 18.441406 L 125.925781 11.484375 C 125.382812 9.738281 124.914062 7.8125 124.484375 6.179688 L 124.394531 6.179688 C 123.984375 7.835938 123.554688 9.789062 123.054688 11.46875 L 120.871094 18.445312 L 128.148438 18.445312 Z M 128.148438 18.441406 "/><path style=" stroke:none;fill-rule:nonzero;fill:#283c54;fill-opacity:1;" d="M 144.324219 2.085938 L 149.488281 2.085938 L 149.488281 26 L 161.101562 26 L 161.101562 30.332031 L 144.332031 30.332031 L 144.332031 2.09375 Z M 144.324219 2.085938 "/><path style=" stroke:none;fill-rule:nonzero;fill:#283c54;fill-opacity:1;" d="M 168.28125 2.085938 L 173.445312 2.085938 L 173.445312 30.324219 L 168.28125 30.324219 Z M 168.28125 2.085938 "/><path style=" stroke:none;fill-rule:nonzero;fill:#283c54;fill-opacity:1;" d="M 180.796875 27.46875 L 195.246094 6.507812 L 195.246094 6.367188 L 182.074219 6.367188 L 182.074219 2.085938 L 201.925781 2.085938 L 201.925781 5.121094 L 187.679688 25.902344 L 187.679688 26.046875 L 202.136719 26.046875 L 202.136719 30.324219 L 180.796875 30.324219 Z M 180.796875 27.46875 "/><path style=" stroke:none;fill-rule:nonzero;fill:#283c54;fill-opacity:1;" d="M 215.542969 22.34375 L 213.136719 30.324219 L 207.800781 30.324219 L 216.863281 2.085938 L 223.433594 2.085938 L 232.609375 30.324219 L 227.070312 30.324219 L 224.515625 22.34375 Z M 223.667969 18.441406 L 221.441406 11.484375 C 220.902344 9.738281 220.429688 7.8125 220.003906 6.179688 L 219.914062 6.179688 C 219.5 7.835938 219.074219 9.789062 218.570312 11.46875 L 216.390625 18.445312 L 223.667969 18.445312 Z M 223.667969 18.441406 "/><path style=" stroke:none;fill-rule:nonzero;fill:#283c54;fill-opacity:1;" d="M 241.871094 6.417969 L 233.808594 6.417969 L 233.808594 2.085938 L 255.171875 2.085938 L 255.171875 6.417969 L 247.035156 6.417969 L 247.035156 30.324219 L 241.871094 30.324219 Z M 241.871094 6.417969 "/><path style=" stroke:none;fill-rule:nonzero;fill:#283c54;fill-opacity:1;" d="M 261.746094 2.085938 L 266.910156 2.085938 L 266.910156 30.324219 L 261.746094 30.324219 Z M 261.746094 2.085938 "/><path style=" stroke:none;fill-rule:nonzero;fill:#283c54;fill-opacity:1;" d="M 301.191406 15.921875 C 301.191406 25.378906 295.457031 30.78125 287.675781 30.78125 C 279.898438 30.78125 274.652344 24.691406 274.652344 16.414062 C 274.652344 8.140625 280.128906 1.613281 288.097656 1.613281 C 296.0625 1.613281 301.191406 7.84375 301.191406 15.914062 Z M 280.101562 16.320312 C 280.101562 22.082031 283.007812 26.660156 287.941406 26.660156 C 292.871094 26.660156 295.742188 22.023438 295.742188 16.117188 C 295.742188 10.789062 293.09375 5.75 287.945312 5.75 C 282.796875 5.75 280.09375 10.519531 280.09375 16.320312 Z M 280.101562 16.320312 "/><g clip-rule="nonzero" clip-path="url(#883c8a4be4)"><path style=" stroke:none;fill-rule:nonzero;fill:#283c54;fill-opacity:1;" d="M 308.925781 30.324219 L 308.925781 2.085938 L 314.820312 2.085938 L 322.113281 14.207031 C 323.972656 17.324219 325.621094 20.605469 326.917969 23.671875 L 327.023438 23.640625 C 326.65625 19.894531 326.558594 16.25 326.558594 11.933594 L 326.558594 2.078125 L 331.324219 2.078125 L 331.324219 30.316406 L 325.980469 30.316406 L 318.613281 17.890625 C 316.816406 14.789062 314.941406 11.351562 313.554688 8.148438 L 313.421875 8.179688 C 313.628906 11.84375 313.699219 15.578125 313.699219 20.214844 L 313.699219 30.316406 L 308.929688 30.316406 Z M 308.925781 30.324219 "/></g></g><mask id="2e4fa79ad3"><g filter="url(#748da502a0)"><rect x="0" width="574.5" y="0" height="577.499966" style="fill:#000000;fill-opacity:0.98;stroke:none;"/></g></mask></g><g mask="url(#48180a9056)" transform="matrix(1,0,0,1,107,411)"><g clip-path="url(#7010dc9c02)"><path style=" stroke:none;fill-rule:nonzero;fill:#283c54;fill-opacity:1;" d="M 1.25 1.546875 L 14.378906 1.546875 L 14.378906 4.050781 L 4.414062 4.050781 L 4.414062 11.792969 L 13.625 11.792969 L 13.625 14.28125 L 4.414062 14.28125 L 4.414062 24.804688 L 1.25 24.804688 Z M 1.25 1.546875 "/><g clip-rule="nonzero" clip-path="url(#077c8d366d)"><path style=" stroke:none;fill-rule:nonzero;fill:#283c54;fill-opacity:1;" d="M 42.582031 12.933594 C 42.582031 20.90625 37.484375 25.171875 31.273438 25.171875 C 25.058594 25.171875 20.316406 20.398438 20.316406 13.375 C 20.316406 6.351562 25.097656 1.164062 31.601562 1.164062 C 38.109375 1.164062 42.582031 6.03125 42.582031 12.941406 Z M 23.636719 13.300781 C 23.636719 18.277344 26.46875 22.726562 31.4375 22.726562 C 36.40625 22.726562 39.246094 18.351562 39.246094 13.066406 C 39.246094 8.441406 36.714844 3.609375 31.476562 3.609375 C 26.238281 3.609375 23.636719 8.21875 23.636719 13.308594 Z M 23.636719 13.300781 "/></g><path style=" stroke:none;fill-rule:nonzero;fill:#283c54;fill-opacity:1;" d="M 49.515625 1.863281 C 51.109375 1.554688 53.402344 1.359375 55.570312 1.359375 C 58.914062 1.359375 61.117188 1.96875 62.636719 3.273438 C 63.84375 4.292969 64.546875 5.871094 64.546875 7.695312 C 64.546875 10.75 62.503906 12.773438 59.953125 13.613281 L 59.953125 13.695312 C 61.8125 14.320312 62.9375 15.996094 63.527344 18.402344 C 64.332031 21.648438 64.90625 23.875 65.402344 24.78125 L 62.136719 24.78125 C 61.753906 24.105469 61.199219 22.128906 60.53125 19.210938 C 59.804688 16.027344 58.492188 14.789062 55.636719 14.699219 L 52.65625 14.699219 L 52.65625 24.773438 L 49.507812 24.773438 L 49.507812 1.847656 Z M 52.65625 12.445312 L 55.871094 12.445312 C 59.242188 12.445312 61.371094 10.699219 61.371094 8.03125 C 61.371094 5.011719 59.085938 3.699219 55.765625 3.691406 C 54.234375 3.691406 53.179688 3.828125 52.648438 3.953125 L 52.648438 12.4375 Z M 52.65625 12.445312 "/><g clip-rule="nonzero" clip-path="url(#5b1302eac5)"><path style=" stroke:none;fill-rule:nonzero;fill:#283c54;fill-opacity:1;" d="M 81.949219 21.132812 C 83.359375 21.96875 85.414062 22.636719 87.578125 22.636719 C 90.800781 22.636719 92.691406 21.035156 92.691406 18.679688 C 92.691406 16.523438 91.371094 15.253906 88.082031 14.078125 C 84.101562 12.730469 81.636719 10.734375 81.636719 7.484375 C 81.636719 3.863281 84.789062 1.179688 89.542969 1.179688 C 92.015625 1.179688 93.859375 1.726562 94.921875 2.304688 L 94.046875 4.761719 C 93.265625 4.320312 91.640625 3.660156 89.445312 3.660156 C 86.09375 3.660156 84.828125 5.550781 84.828125 7.140625 C 84.828125 9.296875 86.3125 10.363281 89.675781 11.597656 C 93.8125 13.140625 95.898438 15.039062 95.898438 18.449219 C 95.898438 21.859375 93.140625 25.148438 87.367188 25.148438 C 85.007812 25.148438 82.4375 24.464844 81.140625 23.632812 L 81.964844 21.132812 Z M 81.949219 21.132812 "/></g><g clip-rule="nonzero" clip-path="url(#a052e5e6a0)"><path style=" stroke:none;fill-rule:nonzero;fill:#283c54;fill-opacity:1;" d="M 106.203125 1.546875 L 106.203125 15.324219 C 106.203125 20.507812 108.617188 22.703125 111.90625 22.703125 C 115.496094 22.703125 117.832031 20.425781 117.832031 15.324219 L 117.832031 1.546875 L 120.996094 1.546875 L 120.996094 15.113281 C 120.996094 22.261719 117.054688 25.179688 111.769531 25.179688 C 106.792969 25.179688 103.039062 22.472656 103.039062 15.246094 L 103.039062 1.554688 L 106.203125 1.554688 Z M 106.203125 1.546875 "/></g><g clip-rule="nonzero" clip-path="url(#d5218c4b5f)"><path style=" stroke:none;fill-rule:nonzero;fill:#283c54;fill-opacity:1;" d="M 128.902344 21.132812 C 130.3125 21.96875 132.367188 22.636719 134.53125 22.636719 C 137.753906 22.636719 139.644531 21.035156 139.644531 18.679688 C 139.644531 16.523438 138.324219 15.253906 135.035156 14.078125 C 131.054688 12.730469 128.589844 10.734375 128.589844 7.484375 C 128.589844 3.863281 131.742188 1.179688 136.496094 1.179688 C 138.96875 1.179688 140.8125 1.726562 141.875 2.304688 L 141 4.761719 C 140.21875 4.320312 138.59375 3.660156 136.398438 3.660156 C 133.046875 3.660156 131.78125 5.550781 131.78125 7.140625 C 131.78125 9.296875 133.265625 10.363281 136.628906 11.597656 C 140.765625 13.140625 142.851562 15.039062 142.851562 18.449219 C 142.851562 21.859375 140.09375 25.148438 134.320312 25.148438 C 131.960938 25.148438 129.390625 24.464844 128.09375 23.632812 L 128.925781 21.132812 Z M 128.902344 21.132812 "/></g><path style=" stroke:none;fill-rule:nonzero;fill:#283c54;fill-opacity:1;" d="M 154.660156 4.082031 L 147.234375 4.082031 L 147.234375 1.546875 L 165.289062 1.546875 L 165.289062 4.082031 L 157.824219 4.082031 L 157.824219 24.789062 L 154.660156 24.789062 Z M 154.660156 4.082031 "/><path style=" stroke:none;fill-rule:nonzero;fill:#283c54;fill-opacity:1;" d="M 172.085938 17.480469 L 169.566406 24.789062 L 166.300781 24.789062 L 174.589844 1.539062 L 178.375 1.539062 L 186.699219 24.789062 L 183.335938 24.789062 L 180.726562 17.480469 Z M 180.089844 15.136719 L 177.675781 8.441406 C 177.144531 6.921875 176.785156 5.535156 176.417969 4.203125 L 176.335938 4.203125 C 175.984375 5.558594 175.609375 6.980469 175.128906 8.398438 L 172.722656 15.128906 L 180.089844 15.128906 Z M 180.089844 15.136719 "/><path style=" stroke:none;fill-rule:nonzero;fill:#283c54;fill-opacity:1;" d="M 193.128906 1.546875 L 196.292969 1.546875 L 196.292969 24.796875 L 193.128906 24.796875 Z M 193.128906 1.546875 "/><path style=" stroke:none;fill-rule:nonzero;fill:#283c54;fill-opacity:1;" d="M 204.628906 24.789062 L 204.628906 1.539062 L 208.089844 1.539062 L 215.898438 13.292969 C 217.683594 16.019531 219.097656 18.464844 220.253906 20.859375 L 220.335938 20.824219 C 220.050781 17.722656 219.992188 14.886719 219.992188 11.285156 L 219.992188 1.539062 L 222.957031 1.539062 L 222.957031 24.789062 L 219.757812 24.789062 L 212.007812 13.007812 C 210.332031 10.398438 208.6875 7.753906 207.476562 5.226562 L 207.371094 5.265625 C 207.558594 8.210938 207.601562 11.011719 207.601562 14.859375 L 207.601562 24.796875 L 204.632812 24.796875 Z M 204.628906 24.789062 "/><path style=" stroke:none;fill-rule:nonzero;fill:#283c54;fill-opacity:1;" d="M 235.25 17.480469 L 232.730469 24.789062 L 229.464844 24.789062 L 237.753906 1.539062 L 241.539062 1.539062 L 249.863281 24.789062 L 246.5 24.789062 L 243.890625 17.480469 Z M 243.253906 15.136719 L 240.839844 8.441406 C 240.308594 6.921875 239.949219 5.535156 239.582031 4.203125 L 239.5 4.203125 C 239.148438 5.558594 238.773438 6.980469 238.292969 8.398438 L 235.894531 15.128906 L 243.261719 15.128906 Z M 243.253906 15.136719 "/><path style=" stroke:none;fill-rule:nonzero;fill:#283c54;fill-opacity:1;" d="M 256.285156 1.863281 C 257.679688 1.570312 259.855469 1.359375 262.035156 1.359375 C 265.199219 1.359375 267.214844 1.871094 268.726562 3.046875 C 269.984375 3.960938 270.765625 5.339844 270.765625 7.160156 C 270.765625 9.410156 269.199219 11.386719 266.644531 12.25 L 266.644531 12.339844 C 268.96875 12.871094 271.679688 14.695312 271.679688 18.171875 C 271.679688 20.15625 270.847656 21.691406 269.597656 22.800781 C 267.917969 24.308594 265.175781 24.984375 261.179688 24.984375 C 259 24.984375 257.351562 24.839844 256.285156 24.726562 L 256.285156 1.855469 Z M 259.433594 11.386719 L 262.320312 11.386719 C 265.617188 11.386719 267.566406 9.71875 267.566406 7.460938 C 267.566406 4.761719 265.421875 3.675781 262.238281 3.675781 C 260.777344 3.675781 259.945312 3.78125 259.433594 3.894531 Z M 259.433594 22.503906 C 260.078125 22.621094 260.949219 22.660156 262.085938 22.660156 C 265.355469 22.660156 268.359375 21.519531 268.359375 18.132812 C 268.359375 14.972656 265.488281 13.652344 262.058594 13.644531 L 259.433594 13.644531 Z M 259.433594 22.503906 "/><path style=" stroke:none;fill-rule:nonzero;fill:#283c54;fill-opacity:1;" d="M 278.753906 1.546875 L 281.917969 1.546875 L 281.917969 24.796875 L 278.753906 24.796875 Z M 278.753906 1.546875 "/><path style=" stroke:none;fill-rule:nonzero;fill:#283c54;fill-opacity:1;" d="M 290.257812 1.546875 L 293.421875 1.546875 L 293.421875 22.261719 L 303.847656 22.261719 L 303.847656 24.796875 L 290.257812 24.796875 Z M 290.257812 1.546875 "/><path style=" stroke:none;fill-rule:nonzero;fill:#283c54;fill-opacity:1;" d="M 310.195312 1.546875 L 313.355469 1.546875 L 313.355469 24.796875 L 310.195312 24.796875 Z M 310.195312 1.546875 "/><path style=" stroke:none;fill-rule:nonzero;fill:#283c54;fill-opacity:1;" d="M 326.34375 4.082031 L 318.917969 4.082031 L 318.917969 1.546875 L 336.972656 1.546875 L 336.972656 4.082031 L 329.507812 4.082031 L 329.507812 24.789062 L 326.34375 24.789062 Z M 326.34375 4.082031 "/><g clip-rule="nonzero" clip-path="url(#a12f5ef44c)"><path style=" stroke:none;fill-rule:nonzero;fill:#283c54;fill-opacity:1;" d="M 349 24.789062 L 349 14.933594 L 341.273438 1.539062 L 344.878906 1.539062 L 348.304688 7.964844 C 349.234375 9.722656 349.976562 11.132812 350.722656 12.761719 L 350.800781 12.761719 C 351.472656 11.230469 352.304688 9.710938 353.242188 7.949219 L 356.757812 1.546875 L 360.324219 1.546875 L 352.164062 14.894531 L 352.164062 24.796875 L 349 24.796875 Z M 349 24.789062 "/></g></g><mask id="48180a9056"><g filter="url(#748da502a0)"><rect x="0" width="574.5" y="0" height="577.499966" style="fill:#000000;fill-opacity:0.98;stroke:none;"/></g></mask></g></g></svg>